# xmcd CD database file
# Copyright (C) 1997 Ti Kan
#
# Track frame offsets:
#  187
#  16855
#  32132
#  47205
#  62797
#  83797
#  101397
#  116280
#  132220
#  145442
#
# Disc length: 2158 seconds
#
# Revision: 1
# Processed by: cddbd v1.4b41PL1 Copyright (c) Steve Scherf et al.
# Submitted via: CDWizzard Release:4.30
#
DISCID=80086c0a
DTITLE=Eddy Arnold - You Don't Miss A Thing
DYEAR=1900
DGENRE=
TTITLE0=You Don't Miss a Thing
TTITLE1=(I'd Choose) You Again
TTITLE2=Snowfall
TTITLE3=A Lady Like You
TTITLE4=To Have and To Hold
TTITLE5=Can I Put You in a Love Song
TTITLE6=Over
TTITLE7=Somebody Loves You
TTITLE8=Just One Time
TTITLE9=Surround Me With Love
EXTD=
EXTT0=
EXTT1=
EXTT2=
EXTT3=
EXTT4=
EXTT5=
EXTT6=
EXTT7=
EXTT8=
EXTT9=
PLAYORDER=
